<?xml version="1.0" standalone="no"?>
<!DOCTYPE svg PUBLIC "-//W3C//DTD SVG 20010904//EN"
 "http://www.w3.org/TR/2001/REC-SVG-20010904/DTD/svg10.dtd">
<svg version="1.0" xmlns="http://www.w3.org/2000/svg"
 width="512.000000pt" height="512.000000pt" viewBox="0 0 512.000000 512.000000"
 preserveAspectRatio="xMidYMid meet">

<g transform="translate(0.000000,512.000000) scale(0.100000,-0.100000)"
fill="#000000" stroke="none">
<path d="M105 5015 c-24 -23 -25 -28 -25 -175 0 -147 1 -152 25 -175 l24 -25
231 0 231 0 24 25 c24 23 25 28 25 175 0 147 -1 152 -25 175 l-24 25 -231 0
-231 0 -24 -25z"/>
<path d="M745 5015 c-16 -15 -25 -36 -25 -55 0 -19 9 -40 25 -55 l24 -25 391
0 391 0 24 25 c16 15 25 36 25 55 0 19 -9 40 -25 55 l-24 25 -391 0 -391 0
-24 -25z"/>
<path d="M1785 5015 l-25 -24 0 -1031 0 -1031 25 -24 24 -25 1591 0 1591 0 24
25 c33 32 33 78 0 110 l-24 25 -1536 0 -1535 0 0 975 0 976 -25 24 c-15 16
-36 25 -55 25 -19 0 -40 -9 -55 -25z"/>
<path d="M3145 4855 l-25 -24 0 -831 0 -831 25 -24 c24 -25 26 -25 215 -25
189 0 191 0 215 25 l25 24 0 831 0 831 -25 24 c-24 25 -26 25 -215 25 -189 0
-191 0 -215 -25z m295 -855 l0 -720 -80 0 -80 0 0 720 0 720 80 0 80 0 0 -720z"/>
<path d="M745 4775 c-16 -15 -25 -36 -25 -55 0 -19 9 -40 25 -55 23 -24 28
-25 175 -25 147 0 152 1 175 25 16 15 25 36 25 55 0 19 -9 40 -25 55 -23 24
-28 25 -175 25 -147 0 -152 -1 -175 -25z"/>
<path d="M755 4470 c-74 -14 -160 -45 -234 -87 -87 -48 -216 -178 -266 -266
-240 -432 4 -962 487 -1061 354 -73 709 138 825 489 22 68 26 98 27 205 1 148
-14 215 -76 340 -33 66 -61 104 -128 171 -141 142 -286 207 -480 214 -58 2
-127 0 -155 -5z m45 -418 l0 -257 -184 -184 -184 -184 -32 49 c-17 27 -40 78
-51 114 -60 196 -15 398 122 545 72 76 141 122 229 152 110 38 100 60 100
-235z m630 -386 c0 -36 -44 -148 -78 -202 -76 -115 -183 -198 -307 -237 -143
-44 -330 -22 -449 53 l-49 32 184 184 184 184 257 0 c214 0 258 -2 258 -14z"/>
<path d="M2585 4375 l-25 -24 0 -591 0 -591 25 -24 c24 -25 26 -25 215 -25
189 0 191 0 215 25 l25 24 0 591 0 591 -25 24 c-24 25 -26 25 -215 25 -189 0
-191 0 -215 -25z m295 -615 l0 -480 -80 0 -80 0 0 480 0 480 80 0 80 0 0 -480z"/>
<path d="M4265 4375 l-25 -24 0 -591 0 -591 25 -24 c24 -25 26 -25 215 -25
189 0 191 0 215 25 l25 24 0 591 0 591 -25 24 c-24 25 -26 25 -215 25 -189 0
-191 0 -215 -25z m295 -615 l0 -480 -80 0 -80 0 0 480 0 480 80 0 80 0 0 -480z"/>
<path d="M2025 4055 l-25 -24 0 -431 0 -431 25 -24 c24 -25 26 -25 215 -25
189 0 191 0 215 25 l25 24 0 431 0 431 -25 24 c-24 25 -26 25 -215 25 -189 0
-191 0 -215 -25z m295 -455 l0 -320 -80 0 -80 0 0 320 0 320 80 0 80 0 0 -320z"/>
<path d="M3705 4055 l-25 -24 0 -431 0 -431 25 -24 c24 -25 26 -25 215 -25
189 0 191 0 215 25 l25 24 0 431 0 431 -25 24 c-24 25 -26 25 -215 25 -189 0
-191 0 -215 -25z m295 -455 l0 -320 -80 0 -80 0 0 320 0 320 80 0 80 0 0 -320z"/>
<path d="M345 2935 c-16 -15 -25 -36 -25 -55 0 -19 9 -40 25 -55 l24 -25 398
0 397 0 201 -200 c179 -178 205 -200 234 -200 43 0 81 38 81 82 0 29 -23 56
-223 255 l-222 223 -433 0 -433 0 -24 -25z"/>
<path d="M2405 2520 l-280 -280 -998 0 -998 0 -24 -25 -25 -24 0 -1031 0
-1031 25 -24 24 -25 1231 0 1231 0 24 25 c24 24 25 28 25 182 l0 158 209 209
210 209 56 -52 c79 -71 131 -106 239 -157 141 -66 242 -88 411 -88 121 0 154
4 238 27 100 27 223 83 305 139 26 17 88 72 137 123 122 124 200 259 247 432
28 103 31 342 5 447 -88 354 -350 621 -706 718 -109 30 -353 30 -462 0 -452
-123 -750 -524 -726 -977 9 -159 47 -290 123 -426 l32 -57 -159 -158 -159
-159 0 758 0 758 -25 24 c-23 24 -30 25 -142 25 l-118 0 200 200 200 200 398
0 398 0 24 25 c16 15 25 36 25 55 0 19 -9 40 -25 55 l-24 25 -433 0 -432 0
-281 -280z m1545 -227 c241 -58 453 -241 546 -471 44 -111 58 -180 57 -302 0
-132 -18 -217 -69 -328 -81 -178 -218 -315 -397 -397 -110 -50 -195 -68 -327
-68 -122 -1 -191 13 -302 57 -231 94 -410 302 -473 551 -25 96 -25 276 -1 370
111 432 538 692 966 588z m-1470 -1133 l0 -920 -1120 0 -1120 0 0 920 0 920
1120 0 1120 0 0 -920z"/>
<path d="M3584 2220 c-133 -35 -288 -129 -365 -222 -123 -148 -179 -300 -179
-482 0 -114 23 -207 74 -311 78 -156 175 -253 331 -331 262 -130 557 -91 793
105 98 81 199 253 227 386 19 89 19 220 0 310 -18 86 -89 232 -148 304 -94
113 -239 205 -383 241 -101 26 -252 26 -350 0z m347 -169 c168 -53 309 -196
362 -366 30 -97 30 -233 0 -330 -53 -171 -197 -315 -368 -368 -97 -30 -233
-30 -330 0 -371 116 -514 574 -274 877 145 184 387 258 610 187z"/>
<path d="M3705 1895 c-14 -13 -25 -31 -25 -40 0 -12 -12 -15 -55 -15 -46 0
-60 -4 -80 -25 -24 -23 -25 -28 -25 -175 0 -147 1 -152 25 -175 23 -24 29 -25
160 -25 l135 0 0 -40 0 -40 -135 0 c-131 0 -137 -1 -160 -25 -16 -15 -25 -36
-25 -55 0 -50 38 -80 102 -80 50 0 54 -2 68 -33 18 -38 58 -55 98 -41 15 5 33
23 42 41 14 31 18 33 68 33 43 0 58 5 77 25 24 23 25 28 25 175 0 147 -1 152
-25 175 -23 24 -29 25 -160 25 l-135 0 0 40 0 40 135 0 c131 0 137 1 160 25
33 32 33 78 0 110 -20 21 -34 25 -80 25 -43 0 -55 3 -55 15 0 27 -47 65 -80
65 -19 0 -40 -9 -55 -25z"/>
<path d="M345 1895 l-25 -24 0 -231 0 -231 25 -24 24 -25 991 0 991 0 24 25
25 24 0 231 0 231 -25 24 -24 25 -991 0 -991 0 -24 -25z m1895 -255 l0 -120
-880 0 -880 0 0 120 0 120 880 0 880 0 0 -120z"/>
<path d="M345 1255 c-16 -15 -25 -36 -25 -55 0 -19 9 -40 25 -55 l24 -25 991
0 991 0 24 25 c33 32 33 78 0 110 l-24 25 -991 0 -991 0 -24 -25z"/>
<path d="M345 1015 c-16 -15 -25 -36 -25 -55 0 -19 9 -40 25 -55 l24 -25 991
0 991 0 24 25 c33 32 33 78 0 110 l-24 25 -991 0 -991 0 -24 -25z"/>
<path d="M345 775 c-16 -15 -25 -36 -25 -55 0 -19 9 -40 25 -55 l24 -25 991 0
991 0 24 25 c33 32 33 78 0 110 l-24 25 -991 0 -991 0 -24 -25z"/>
<path d="M345 535 c-16 -15 -25 -36 -25 -55 0 -19 9 -40 25 -55 l24 -25 431 0
431 0 24 25 c33 32 33 78 0 110 l-24 25 -431 0 -431 0 -24 -25z"/>
<path d="M1385 535 c-16 -15 -25 -36 -25 -55 0 -19 9 -40 25 -55 21 -22 33
-25 95 -25 62 0 74 3 95 25 16 15 25 36 25 55 0 19 -9 40 -25 55 -21 22 -33
25 -95 25 -62 0 -74 -3 -95 -25z"/>
<path d="M3705 2775 c-16 -15 -25 -36 -25 -55 0 -19 9 -40 25 -55 21 -22 33
-25 95 -25 62 0 74 3 95 25 16 15 25 36 25 55 0 19 -9 40 -25 55 -21 22 -33
25 -95 25 -62 0 -74 -3 -95 -25z"/>
<path d="M4025 455 c-16 -15 -25 -36 -25 -55 0 -19 9 -40 25 -55 23 -24 28
-25 175 -25 147 0 152 1 175 25 16 15 25 36 25 55 0 19 -9 40 -25 55 -23 24
-28 25 -175 25 -147 0 -152 -1 -175 -25z"/>
<path d="M4505 455 c-24 -23 -25 -28 -25 -175 0 -147 1 -152 25 -175 l24 -25
231 0 231 0 24 25 c24 23 25 28 25 175 0 147 -1 152 -25 175 l-24 25 -231 0
-231 0 -24 -25z"/>
<path d="M3545 215 c-16 -15 -25 -36 -25 -55 0 -19 9 -40 25 -55 l24 -25 391
0 391 0 24 25 c16 15 25 36 25 55 0 19 -9 40 -25 55 l-24 25 -391 0 -391 0
-24 -25z"/>
</g>
</svg>
