<?xml version="1.0" standalone="no"?>
<!DOCTYPE svg PUBLIC "-//W3C//DTD SVG 20010904//EN"
 "http://www.w3.org/TR/2001/REC-SVG-20010904/DTD/svg10.dtd">
<svg version="1.0" xmlns="http://www.w3.org/2000/svg"
 width="300.000000pt" height="300.000000pt" viewBox="0 0 300.000000 300.000000"
 preserveAspectRatio="xMidYMid meet">

<g transform="translate(0.000000,512.000000) scale(0.100000,-0.100000)"
fill="#ffffff" stroke="none">
<path d="M880 4947 c-49 -16 -133 -102 -148 -153 -9 -31 -12 -237 -12 -818 l0
-776 80 0 80 0 0 775 0 776 25 24 24 25 1911 0 1911 0 24 -25 25 -24 0 -1351
0 -1351 -25 -24 -24 -25 -1576 0 -1575 0 0 -80 0 -80 1578 0 c1783 0 1637 -7
1715 80 24 26 49 66 55 88 17 57 17 2727 0 2784 -6 22 -31 62 -55 88 -78 87
110 80 -2057 79 -1370 -1 -1931 -4 -1956 -12z"/>
<path d="M985 4695 c-50 -49 -15 -135 55 -135 41 0 80 39 80 80 0 41 -39 80
-80 80 -19 0 -40 -9 -55 -25z"/>
<path d="M1225 4695 c-50 -49 -15 -135 55 -135 41 0 80 39 80 80 0 41 -39 80
-80 80 -19 0 -40 -9 -55 -25z"/>
<path d="M1465 4695 c-50 -49 -15 -135 55 -135 41 0 80 39 80 80 0 41 -39 80
-80 80 -19 0 -40 -9 -55 -25z"/>
<path d="M3440 4627 c-19 -6 -58 -34 -86 -62 -57 -57 -78 -113 -72 -191 l3
-47 -185 -137 -185 -137 -39 14 c-88 30 -170 10 -241 -62 -54 -53 -75 -102
-75 -173 l0 -40 -202 -149 c-112 -82 -208 -152 -214 -156 -6 -4 -26 1 -44 10
-90 44 -190 24 -268 -53 -28 -29 -52 -60 -52 -68 0 -14 -22 -16 -170 -16
l-170 0 0 -80 0 -80 170 0 c148 0 170 -2 170 -16 0 -27 101 -119 146 -132 94
-28 169 -8 240 63 57 57 78 113 72 191 l-3 48 203 149 204 150 45 -23 c59 -29
121 -36 180 -19 66 18 144 96 162 162 13 43 11 110 -2 147 -5 14 51 58 328
258 30 22 32 22 64 6 91 -45 190 -26 269 52 28 29 52 60 52 68 0 14 30 16 250
16 l250 0 0 80 0 80 -250 0 c-220 0 -250 2 -250 16 0 27 -101 119 -146 132
-49 14 -106 14 -154 -1z m135 -172 c16 -15 25 -36 25 -55 0 -19 -9 -40 -25
-55 -15 -16 -36 -25 -55 -25 -19 0 -40 9 -55 25 -16 15 -25 36 -25 55 0 19 9
40 25 55 15 16 36 25 55 25 19 0 40 -9 55 -25z m-720 -560 c16 -15 25 -36 25
-55 0 -19 -9 -40 -25 -55 -15 -16 -36 -25 -55 -25 -19 0 -40 9 -55 25 -16 15
-25 36 -25 55 0 19 9 40 25 55 15 16 36 25 55 25 19 0 40 -9 55 -25z m-800
-560 c50 -49 15 -135 -55 -135 -41 0 -80 39 -80 80 0 41 39 80 80 80 19 0 40
-9 55 -25z"/>
<path d="M4400 4400 l0 -80 80 0 80 0 0 80 0 80 -80 0 -80 0 0 -80z"/>
<path d="M3785 4135 c-24 -23 -25 -29 -25 -160 l0 -135 -215 0 c-285 0 -265
17 -265 -225 l0 -175 -215 0 c-285 0 -265 17 -265 -225 l0 -175 -215 0 c-216
0 -216 0 -240 -25 -24 -23 -25 -29 -25 -160 l0 -135 -215 0 c-285 0 -265 17
-265 -225 l0 -175 -80 0 -80 0 0 -80 0 -80 1440 0 1440 0 0 80 0 80 -80 0 -80
0 0 895 0 896 -25 24 -24 25 -271 0 -271 0 -24 -25z m455 -975 l0 -840 -160 0
-160 0 0 840 0 840 160 0 160 0 0 -840z m-480 -160 l0 -680 -160 0 -160 0 0
680 0 680 160 0 160 0 0 -680z m-480 -200 l0 -480 -160 0 -160 0 0 480 0 480
160 0 160 0 0 -480z m-480 -200 l0 -280 -160 0 -160 0 0 280 0 280 160 0 160
0 0 -280z m-480 -160 l0 -120 -160 0 -160 0 0 120 0 120 160 0 160 0 0 -120z"/>
<path d="M1120 3280 l0 -80 80 0 80 0 0 80 0 80 -80 0 -80 0 0 -80z"/>
<path d="M661 3024 c-211 -57 -356 -261 -338 -474 9 -96 29 -143 138 -326 l99
-166 0 -124 c0 -98 -3 -124 -14 -124 -34 0 -157 -74 -213 -129 -68 -66 -104
-122 -142 -220 l-26 -66 -3 -617 -3 -618 80 0 80 0 3 608 3 607 32 67 c44 93
100 151 191 196 l76 37 360 0 c532 0 477 30 903 -489 166 -203 307 -373 315
-377 7 -5 109 -9 226 -9 l212 0 0 -160 0 -160 -311 0 c-297 0 -312 1 -361 22
-45 19 -89 64 -376 382 -178 199 -327 362 -331 363 -3 1 -32 -21 -63 -50 l-58
-52 150 -165 149 -165 1 -327 0 -328 80 0 80 0 2 236 3 236 93 -106 c159 -178
223 -206 478 -206 142 0 164 -2 164 -16 0 -27 101 -119 146 -132 31 -9 241
-12 836 -12 904 0 855 -4 931 80 53 59 67 103 67 214 l0 87 240 521 c132 287
240 532 240 545 0 13 -11 35 -25 48 l-24 25 -629 0 c-585 0 -631 -1 -650 -17
-12 -10 -84 -155 -161 -323 l-140 -305 -148 -37 -148 -37 -300 0 -300 0 -245
301 c-135 166 -273 332 -308 369 -108 116 -220 175 -379 202 l-77 12 46 28
c26 15 59 42 72 60 51 67 56 98 56 383 0 233 2 264 16 264 27 0 119 101 132
146 28 94 8 169 -63 239 -31 32 -65 55 -91 63 -63 19 -701 15 -773 -4z m754
-169 c33 -32 33 -78 0 -110 -23 -24 -28 -25 -170 -25 -81 0 -154 -4 -164 -9
-9 -6 -59 -72 -109 -148 l-92 -139 0 -132 0 -132 -98 0 -97 0 -82 138 c-121
205 -118 196 -118 287 0 64 5 89 24 125 41 79 108 135 191 161 14 4 175 8 358
8 l333 1 24 -25z m-135 -546 l0 -251 -29 -29 c-47 -46 -81 -40 -152 28 l-59
56 0 131 0 130 61 93 62 93 58 0 59 0 0 -251z m-289 -374 c38 -35 80 -67 94
-71 65 -16 9 -24 -170 -24 l-195 0 0 80 0 80 101 0 102 0 68 -65z m3599 -420
c0 -3 -90 -200 -200 -437 l-199 -433 -256 -3 -255 -2 0 30 c0 42 -22 90 -56
121 -16 14 -90 63 -166 108 l-136 81 110 238 c60 130 116 252 123 270 l14 32
510 0 c281 0 511 -2 511 -5z m-1235 -741 c88 -53 162 -98 164 -100 16 -15 -26
-11 -159 15 -84 17 -160 31 -170 31 -9 0 -82 -49 -161 -108 -159 -120 -178
-132 -208 -132 -20 0 -21 5 -21 160 l0 160 48 0 c26 0 106 16 177 34 72 19
139 35 150 35 11 1 92 -42 180 -95z m-75 -351 c0 -32 3 -68 6 -80 l6 -23 -213
0 c-193 1 -210 2 -176 14 40 15 80 40 162 105 49 39 52 40 133 40 l82 1 0 -57z
m880 2 c0 -46 -4 -60 -25 -80 l-24 -25 -311 0 -311 0 -24 25 c-21 20 -25 34
-25 80 l0 55 360 0 360 0 0 -55z"/>
</g>
</svg>
